<?xml version="1.0" encoding="UTF-8" standalone="no"?>
<!DOCTYPE svg PUBLIC "-//W3C//DTD SVG 1.1//EN"
"http://www.w3.org/Graphics/SVG/1.1/DTD/svg11.dtd">


<!-- Page 1 -->
<svg x="0" y="0" width="1512" height="3050" viewBox="0 0 1512 3050" version="1.1" xmlns="http://www.w3.org/2000/svg" xmlns:xlink="http://www.w3.org/1999/xlink"
style="display: block;margin-left: auto;margin-right: auto;">
<defs>
<clipPath id="c_1"><path d="M0,0H1512V3050H0Z"/></clipPath>
<style type="text/css"><![CDATA[

.g0{
fill: #EC008C;
}
.g1{
fill: #FF007F;
}
.g2{
fill: #007F7F;
}

]]></style>

</defs>
<path d="M0,0
L0,3050
L1512,3050
L1512,0 Z " 
fill="#FFFFFF" stroke="none"/>
<g clip-path="url(#c_1)">
<path fill-rule="evenodd" d="M693.2,1394.7c-4.7,-3.3,-9.7,-6.6,-9.4,-13.6c.3,-6.5,6.9,-11.8,13.6,-14.6c8.9,-3.6,21.8,-3,30.5,-7c7.4,-3.4,8.2,-15.5,-1.8,-16.9c-4.3,-.6,-9.6,2.1,-14.6,3.3c-8.9,2.1,-23.2,6.2,-34.7,3.3c-10.6,-2.7,-21.2,-14.2,-19.7,-29.6c2,-22.3,16.4,-28.5,34.2,-36.2c7.2,-3.1,14.2,-7.3,21.6,-8.4c9.6,-1.4,16.5,2.7,17.4,8.4c1.7,11.3,-12.9,17.1,-22.1,21.2c-2.4,1,-6.5,3.7,-8.9,5.1c-1.9,1.2,-7.4,4.1,-7,7.1c.8,7.2,25,.6,28.1,.4c19.7,-1.1,39.5,5.2,43.7,20.2c3.8,13.9,-2.1,28.6,-9.4,35.7c-5.3,5.2,-14.3,8.1,-22.1,11.3c-12.8,5.2,-22.3,9.9,-39.4,10.3Z" class="g0"/>
<path fill-rule="evenodd" d="M500.4,1418.3c9.2,-5.3,15.9,-23.8,13.9,-34c-9.1,5.8,-22.7,22.5,-13.9,34ZM488.5,1283.4c.1,8.9,-3.5,17,-6.1,25.4c-2.9,9.7,-8.3,18.2,-7.5,30.5c.4,6.4,2.5,12.2,4.7,20.2c1.4,5.2,3.5,17.1,7,17.8c4.6,.9,11.3,-9.8,14.6,-13.1c5.2,-5.3,10.4,-9.9,14.6,-12.7c9.3,-6.4,24.8,-9.9,30,1.4c1.7,3.8,1.7,10.8,1.4,15c-1.1,14,-5.2,25.5,-9.4,36.2c-1.5,4,-5.1,11.5,-4.7,14.5c.7,5.1,10.4,7,16,9c6.7,2.3,12.7,4.6,17.8,6.5c7.5,2.9,30.5,8,30.1,19.3c-.3,7,-13,12.7,-19.7,12.7c-5.6,-.1,-13,-3.6,-18.8,-6.2c-11.4,-4.9,-23.3,-9.1,-35.2,-13.6c-5.9,-2.2,-12.2,-4.9,-18.8,-4.7c-4,10.8,8.3,25,6.6,37.1c-1.1,7.1,-11.8,16.4,-22.1,12.2c-6.3,-2.5,-10.6,-27.5,-12.7,-35.2c-8.5,-32.4,-17.1,-61.9,-25.8,-93.9c-1.8,-6.7,-4.9,-13.9,-5.2,-18.7c-.2,-5,2.6,-10.9,4.3,-16c3.4,-10.3,6.8,-19.2,10.3,-30c1.7,-5.4,2.7,-11.5,5.6,-14.6c4.9,-5.1,19.1,-7.8,23,.9Z" class="g0"/>
<path fill-rule="evenodd" d="M616.2,1317.7c5.6,-.6,15.2,-.5,20.2,1.4c6.1,2.4,12.9,9.6,15,15.5c5.9,16.4,-2.3,37.3,-10.8,47.9c-3.6,4.6,-16.7,17.9,-26.3,15.5c-9.6,-2.5,-4.5,-18.8,-1.8,-24.4c1.4,-3.1,18.3,-23.7,5.1,-26.8c-4.1,-1,-9.4,6,-11.7,9.4c-7.2,10.5,-15.8,31,-8,46.5c9.1,18.1,34.9,6.3,42.7,-5.2c6.7,-9.7,9.9,-26,22.6,-27.2c19.8,-1.9,13.3,20.6,8.4,31.4c-2.7,6,-6.3,12,-9.4,16c-5.4,7.2,-17.4,17.4,-26.3,21.1c-26.5,11.3,-54.4,-1.4,-65.2,-18.3c-7.8,-12.1,-10.7,-26.1,-8.9,-44.1c2.1,-21.8,18.6,-43.5,36.6,-53.5c4.3,-2.4,11.8,-4.5,17.8,-5.2Z" class="g0"/>
<path fill-rule="evenodd" d="M284.8,1381.6c10,-1.7,10.3,7.4,13.1,17.3c8.6,29.8,16.8,63.3,25.4,94.4c4.8,17.4,13.4,36.1,7.5,56.8c-7.4,26.1,-41.7,49.5,-75.1,33.8C250,1581.2,238.6,1574,237.4,1567c-1.7,-10.1,5.1,-19.7,14.5,-19.3c10.8,.5,13.4,13.2,25.9,14.1c10.3,.7,21.3,-7.2,23.4,-14.1c2.8,-8.8,-.6,-17.7,-2.8,-26.3c-6.4,-24.9,-13.9,-48.6,-20.6,-74.1c-2.1,-7.8,-4.9,-26.6,-10.4,-27.7c-2.7,-.6,-10.4,3.6,-14.1,5.1c-10.4,4.5,-15.7,8,-25.8,12.2c-8.3,3.6,-15,8,-25.8,7.6c-6.3,-.3,-13.2,-3.8,-13.6,-9.9c-.6,-9.4,11.3,-14.9,19.2,-18.3c18,-7.7,33.7,-15.6,50.7,-23.5c4.2,-1.9,9,-3.5,13.2,-5.6c4.7,-2.4,8.8,-4.8,13.6,-5.6Z" class="g0"/>
<path fill-rule="evenodd" d="M413.4,1394.7c6.1,-.3,14.4,.7,15,8c.6,6.9,-8.8,12,-13.1,14.5c-6,3.6,-12.4,5.9,-17.8,9.4c-8.6,5.5,-20.4,18.8,-23,26.8c-5.7,16.6,.5,40.8,16.9,42.2c8.2,.8,16.6,-3.6,21.1,-7c7.1,-5.4,12.4,-16.1,13.6,-24.4c2.2,-15.4,-9.2,-31,-.9,-44.6c2.9,-4.9,11.4,-9.5,18.7,-6.1c5.2,2.4,6.6,11.6,8.5,18.8c4.2,15.5,7.7,27.2,11.7,42.7c1.8,6.9,6.2,16.2,4.7,22c-1.1,4.5,-12.5,9.2,-18.8,9.4c-3.7,.2,-5.8,-1.7,-8.9,-1.4c-6.3,.7,-13,9.8,-18.8,13.2c-2.2,1.3,-5.4,2.4,-8.4,3.7c-6,2.6,-13.5,4.8,-22.5,4.7c-32,-.3,-51.7,-24.6,-51.2,-58.2c.4,-28.1,17.5,-45.8,35.2,-58.2c9.2,-6.5,20.2,-12.5,31.9,-15c2.3,-.5,3.7,-.4,6.1,-.5Z" class="g0"/>
<path fill-rule="evenodd" d="M1129.3,1574c4.1,-5.1,4,-12.2,5.2,-18.3c4.3,-22.9,13.4,-45.1,27.7,-58.7c7.8,-7.4,21,-17.7,38.5,-11.2c18.7,6.8,30.8,30.6,37.5,52.1c2.2,7.2,5.4,18,4.7,24.9c-.8,7.4,-6.9,16,-12.2,18.7c-9.6,4.9,-23.1,1,-27.2,-5.6c-3.7,-5.9,-4.8,-16.8,-7.1,-23.5c-1.8,-5.4,-6.3,-16.9,-13.6,-16.9c-7.3,.1,-12.4,15.6,-15,24c-9,28.4,-11.2,71.4,-8.5,105.6c3,36.8,10.4,65.5,18.8,97.2c2.6,9.9,8.1,21.2,8,30.5c-.1,11.2,-9.9,22,-20.2,22c-4.7,.1,-11.4,-4,-13.6,-7.5c-1.1,-1.8,-1.9,-7.3,-2.8,-12.2c-1.9,-10.2,-5.3,-20.5,-8,-31c-7.8,-30.8,-16.2,-58.8,-24.9,-91.5c-8.6,-32.4,-16.1,-60,-24.4,-92.5c-2.6,-10.1,-8.1,-22.8,-7,-31.4c1.4,-11.5,18.1,-19.3,28.1,-13.2c11,6.8,6.6,29,16,38.5Z" class="g0"/>
<path fill-rule="evenodd" d="M785.7,1907.8c4.5,-8.1,3.8,-18.3,4.7,-27.7c5.4,-59.6,9.5,-118.9,14.5,-178.9c.8,-9.6,2.7,-19.5,2.8,-29.1c.4,-20.5,-4.1,-39.4,-8.9,-56.3c-9.5,-33.8,-25.9,-60.4,-53,-77.5c-6.3,-3.9,-14.6,-6.6,-22.1,-10.8c-6.1,-3.4,-15.5,-8,-15,-17.3c.4,-6.9,6.9,-11.8,14.1,-12.7c20,-2.6,40.3,6.5,53.5,15.5c27.9,18.9,47.1,45,57.7,80.3c7.3,24.2,12.6,49,9.9,78.4c-4.3,46.9,-7.5,95.9,-11.3,143.1c-3.1,39.1,-6.4,81.1,-10.3,122.1c-1.3,14,-.7,29.6,-3.8,40.4c-2.2,7.8,-10.7,17.8,-21.6,15.9c-8.9,-1.5,-18.3,-20.7,-22.5,-28.1c-18.4,-32.5,-37,-62.4,-56.3,-94.4c-13.5,-22.3,-26.2,-40.8,-38.5,-62.4c-8.3,-14.6,-18.6,-31.2,-28.2,-47.4c-3.2,-5.4,-8.1,-11.5,-8.9,-16c-2.6,-15,6.5,-25.6,19.2,-24.4c6.6,.6,12.9,6.5,16.5,10.8c5.1,6.2,8.8,15,13.1,22.5c4.4,7.6,9.4,15,13.6,22.1c18.2,30.4,33.9,59.7,52.6,89.2c4.6,7.1,9.3,14.5,13.6,22c4.1,7,6.9,16,14.6,20.7Z" class="g0"/>
<path fill-rule="evenodd" d="M1004.4,1573.1c8.3,-.3,21.7,4.4,28.2,8c21.2,11.6,37.9,39.8,40.4,70.4c4.2,52.5,-14.8,90.5,-38.5,120.1c-15,18.8,-36.6,32.4,-60.6,37.6c-5.4,1.2,-19.3,1.4,-23.9,-.5c-14.2,-5.9,-12.6,-33.1,2.8,-36.6c5.4,-1.2,11.4,1.7,16.4,1.4c7.7,-.4,16.8,-3.2,25.4,-8c21,-11.6,43.1,-43.9,46,-76c3.1,-34.3,-9.1,-63.6,-37.1,-69.9c-12.1,-2.8,-29.1,2.9,-38.5,8.4c-13.2,7.8,-26.9,23.9,-35.7,40.8c-8.8,17.2,-15.4,36.5,-17.3,58.7c-4.2,48.3,10.9,90.9,40.8,110.8c11.4,7.6,30.3,13.1,48.3,8c29.6,-8.3,50.1,-32.3,62,-60.6c4.4,-10.5,7.5,-25,22.1,-24.4c6.9,.3,12.3,6.8,13.1,11.3c1.2,7,-4.3,17.9,-7,24.4c-9.1,22,-22,41,-37.1,55.9c-9.8,9.5,-22.9,19.9,-36.6,25.8c-15.2,6.6,-35.3,8.4,-53.1,5.1c-33,-6.1,-53.9,-29.3,-68,-56.3C882.1,1800.2,876.2,1761.8,880,1721.9c1.9,-19.1,7.6,-38.1,14.1,-54c13.6,-33,30,-57.7,58.7,-77.5c6.4,-4.4,13.5,-8.5,22.5,-11.7c8.4,-3,18.9,-5.2,29.1,-5.6Z" class="g0"/>
<path fill-rule="evenodd" d="M333.6,1701.2c-5.2,-2.7,-10.1,2,-14.5,3.8c-4.7,1.9,-9.2,4,-13.7,6.1c-8.8,4.3,-18.8,9.3,-27.6,12.2c-12.5,4.1,-32.1,5,-32.4,-11.3c-.2,-8.4,7.8,-13.9,15,-17.3c21.5,-10.3,45.4,-19.6,66.2,-29.6c20.9,-10.1,43.2,-20.6,65.7,-30.5c7.9,-3.5,16.1,-9.4,23.5,-10.4c5.9,-.7,12.7,4.9,13.6,10.4c2,13.1,-10,21.1,-15.5,27.2c-7.3,8,-13.6,15.4,-20.2,22.1c-14.3,14.3,-25.8,31.6,-34.7,49.7c-18.4,37.1,-26.9,87.9,-22.6,144.1c1.9,24.4,8.7,48.2,16,69c17.7,50.6,47.6,94.1,94.8,116.9c9.6,4.7,20.6,9.6,31.5,10.8c27.9,3.2,46.3,-7.1,61.9,-19.2c15.6,-12.1,26.4,-28.3,35.2,-45.5c9.4,-18.2,16.7,-37.5,20.7,-60.6c16.4,-95.3,-14.9,-183.4,-62.9,-232.4c-9,-9.1,-27.8,-29.1,-43.7,-30.5c-23.3,-2,-38.4,25.2,-37,49.3c.4,8.8,5.1,15.3,1.8,26.3c-2.9,10,-21.6,20.6,-32.8,13.6c-7.4,-4.6,-8.1,-18.6,-9,-28.6c-1,-12.5,.2,-23.3,1.9,-34.3c4.7,-29.6,20.7,-53.2,45.1,-64.8c3.7,-1.8,7,-4.7,10.3,-5.1c18.6,-2.5,33.3,5.7,47.4,12.6c29.2,14.4,53.3,38.4,71.4,63.9c25,35.2,42.6,77.2,51.2,129.5c9.1,55.7,2.3,114.1,-14.6,156.8c-8.2,20.8,-19.1,41.1,-32.9,57.8c-6.7,8.1,-14.6,14.6,-23,22c-8.5,7.7,-16.8,16,-26.2,19.7c-6.8,2.7,-13.9,4.8,-21.2,6.6c-7.2,1.8,-15.1,4.4,-22,5.2c-6,.6,-13.6,.2,-20.2,0c-6.3,-.2,-12.7,-1.1,-17.9,-2.8c-10.7,-3.6,-21,-6.7,-30.5,-10.8C412,2094.6,396.4,2082.8,382,2070.2c-14.3,-12.4,-27.4,-28.7,-37.6,-45.1c-31.6,-50.4,-54,-114,-49.3,-197.1c2.6,-45.1,15.4,-80.6,31.9,-112.7c2.3,-4.4,6.3,-8.5,6.6,-14.1Z" class="g0"/>
<path fill-rule="evenodd" d="M711,2182.4c7.5,-3.3,11.2,-11.4,16.5,-17.4c10.2,-11.4,20.1,-23.4,34.2,-32.4c6.4,-4,17.2,-9.8,24.9,-5.6c6.4,3.5,8.2,18.9,10.8,28.6c6.7,25.2,13.9,52.2,21.1,77.5c2.1,7.3,4.5,13.9,1.9,20.2c-2.3,5.6,-11.2,12.6,-17.4,12.2c-4.6,-.3,-9.4,-6.5,-11.2,-9.9c-3,-5.4,-4.3,-13.7,-6.1,-21.1c-3.8,-14.9,-7.1,-25.9,-11.8,-42.2c-1.6,-5.7,-3.4,-18.5,-7.5,-19.3c-3.7,-.7,-12,9.5,-13.6,11.3c-8.9,9.5,-13.6,17.2,-21.1,28.6c-3,4.6,-8.3,11.2,-8.9,15.5c-.6,4.4,1.4,9.5,2.8,14.6c1.3,4.9,2.1,9.8,3.3,14c2.6,9.3,7.1,19.2,7,27.7c-.1,10.8,-7.2,21.2,-19.7,17.4c-10.2,-3.1,-13.1,-26,-16.4,-38c-10.1,-36.7,-18.7,-70.9,-28.7,-106.6c-1.9,-6.7,-5.1,-15.7,-4.7,-22c.6,-7.2,7.8,-18.1,11.3,-24.5c8.8,-15.8,15.7,-30.1,24.4,-46.4c5.1,-9.5,7.7,-23,18.3,-24c6.7,-.6,14.3,2.7,15,9c.9,6.6,-6,15.2,-8.9,21.1c-7.2,14.7,-13,24.7,-20.6,39.4c-3.6,6.8,-8.8,15.2,-9.4,20.7c-1.1,9.6,3.9,18.5,6.1,27.2c2.4,9.4,3.6,18.5,8.4,24.4Z" class="g0"/>
<path fill-rule="evenodd" d="M904,2056.6c2.2,-.2,9.3,-1,13.1,0c11.8,3.2,21.6,18.4,22.1,32.8c.2,6.3,-.9,14.2,-1.9,22.1c-2.6,20.5,-12,35,-23.9,47c-7,7,-18.3,17.4,-28.2,15.9c-3.8,-.6,-9.4,-5.8,-9.9,-12.2c-1.1,-14.7,14.9,-20.6,21.6,-28.6c4.1,-4.8,7.9,-10.3,9.9,-16.4c3.4,-10.6,3,-27.8,-4.7,-29.6c-7.7,-1.8,-21.6,12.4,-26.3,19.7c-14,21.8,-16.6,76.4,8,88.7c11.1,5.6,24.8,-2.2,31.4,-8.9c6.2,-6.3,9.7,-15.8,15.1,-24.9c4.3,-7.4,8.4,-20.4,20.1,-19.2c17.1,1.7,9.1,25.2,4.3,34.7c-3.8,7.5,-7.4,14.6,-11.3,20.2c-9.4,13.2,-26.5,27.4,-46.5,29.6c-22.3,2.3,-37.3,-9.7,-46,-21.6C838,2188,833.1,2159.2,836.8,2135c3.9,-24.7,17.2,-49.6,31,-62c4.8,-4.2,12.9,-9.8,18.3,-12.2c5,-2.2,11.4,-3.6,17.9,-4.2Z" class="g0"/>
<path fill-rule="evenodd" d="M581.9,2128.9c16.9,-2.5,17.9,17.6,22.1,31.9c1.6,5.4,4.3,22.5,9.4,23.5c3.7,.7,12.5,-4.7,15.5,-6.1c4.1,-1.9,9.8,-6.2,15.5,-6.1c7,.1,14.5,9.5,11.2,18.7c-1.9,5.7,-11.7,7.7,-18.3,10.8c-4,2,-15.8,6.4,-17.3,11.3c-2,6.2,3.8,21.2,5.6,27.7c4.8,17.4,9.2,36.1,14.6,54c2.8,9.5,6.4,18.6,6.5,27.2c.2,10.4,-5.7,22.8,-18.3,20.2c-8.2,-1.7,-11.4,-15.1,-14.1,-25.3c-7,-27.2,-12,-50.1,-20.6,-78c-1.3,-4,-3,-11.9,-6.6,-12.6c-5.2,-1.2,-12,3.8,-16,5.6c-9.1,4.1,-15.7,10,-23.9,1.4c-1.8,-1.9,-4.1,-5.4,-3.7,-9.9c.6,-8.1,12.3,-11.4,18.3,-14c5.7,-2.6,18.7,-6.7,19.7,-12.7c.5,-3.2,-2,-7.7,-3.3,-12.7c-1.1,-4.2,-2.3,-8.9,-3.3,-12.7c-2.3,-8.6,-7.2,-16.9,-7,-24.4c.2,-7.3,5.9,-16.6,14,-17.8Z" class="g0"/>
<path fill-rule="evenodd" d="M532.7,2475.8c2.7,17.7,7.6,34.4,11.7,51.2c12.3,49.8,27.6,96.6,39.4,148.3c3.7,16.2,9.2,32.4,13.6,49.3c11,41.4,21,80.7,31.5,124.9c4.1,17.1,3.6,39,-16.9,35.6c-15,-2.4,-19.9,-22.9,-24.4,-39.4c-9.9,-35.8,-17.1,-65.8,-26.3,-100.9C541.7,2669.6,522,2594.4,502.1,2518c-1.8,-6.9,-3.6,-21.6,-7.9,-23.4c-3.3,-1.4,-10.9,2.7,-15.1,4.7c-27.8,13.2,-54.2,24.3,-83.1,38c-5.4,2.6,-11,4.8,-16.9,3.3c-13.2,-3.5,-15,-21.6,-5.1,-30.5c3.9,-3.6,12.3,-6.4,18.3,-8.9c43.4,-18.7,85.9,-41,128.6,-59.2c25.2,-10.7,48.8,-23.5,73.2,-34.3c73.9,-32.5,148.5,-69.5,220.7,-101.8c12,-5.4,25,-10.3,37.1,-16.9c11.3,-6.2,23.9,-12.5,36.1,-17.4c12.1,-4.9,24.4,-11.2,37.1,-16.9c12.6,-5.7,25.3,-13.7,37.1,-16.4c13.3,-3.2,25.3,11.5,19.2,24.8c-3,6.8,-17.8,11.1,-26.3,15.5c-8.8,4.7,-19.4,8.4,-28.6,12.7c-18.8,9,-37.9,18.9,-55.9,26.8c-39.3,17.3,-75.7,35,-113.1,52.1c-38,17.3,-75.6,35,-112.7,52.5c-13.8,6.6,-27.9,13.1,-42.7,19.3c-4.8,2,-8.9,5.1,-13.6,7c-9.6,4.1,-19.3,8.1,-28.6,12.7c-9.2,4.5,-19.4,7.5,-27.2,14.1Z" class="g0"/>
<path fill-rule="evenodd" d="M893.6,2396c4.4,-2,5.1,-7.1,6.6,-10.8c4.8,-11.8,11.3,-23.1,19.3,-32.9c10.2,-12.6,21.4,-24.7,35.6,-33.3c7.5,-4.5,17.2,-9,26.8,-11.3c35.5,-8.4,65.6,7.4,84.5,26.3c16.5,16.5,28.6,36.4,36.1,62c8.1,27.5,10,57.1,6.6,87.8c-2.7,24.5,-14,55.3,-24.4,73.7c-7.4,13,-19.8,29.5,-30,38c-6.9,5.7,-17.1,12.9,-26.8,17.4c-10.5,4.8,-30.4,9.4,-40.8,1.9c-11,-8,-7.6,-27,1.4,-32.4c4.6,-2.8,12.4,-3,17.8,-4.7c37.7,-11.6,62.4,-55,68.5,-101.4c3.5,-26.3,-.1,-54.2,-7.9,-73.3c-10.7,-26,-27.7,-47.8,-60.1,-52.5c-.3,-.1,-.7,0,-1,0c-27.8,-1.3,-46.5,14.5,-61,29.5c-13.5,14,-24.9,39.6,-29.6,61.1c-1.9,8.8,-3.8,19.1,-3.2,30c.3,6.6,3.6,15,5.6,22.5c22.1,83.3,41.5,160.4,64.3,243.2c6.2,22.6,10.8,44.1,17.4,66.7c2.1,7.4,5.3,15.3,4.7,23c-1.3,14.8,-22.1,30.3,-33.8,13.6c-3.9,-5.5,-6.2,-19.8,-8.5,-28.7C933.4,2703.9,904.6,2598.2,877.2,2490.8c-7.1,-27.7,-14.7,-58,-23.5,-87.3c-2.6,-8.7,-7.8,-23.3,-6.5,-30c2.6,-14.1,26.3,-21.3,35.6,-7.6c5.6,8.2,3,22.7,10.8,30.1Z" class="g0"/>
<path fill-rule="evenodd" d="M627.9,2507.2c-6.3,-1.6,-10.9,1.8,-15,3.8c-4.3,2.1,-8.8,3.8,-14.1,6.1c-8.1,3.5,-18.8,12.7,-30,9.9c-7.6,-2,-11.7,-12.9,-8.5,-22.1c2,-5.6,9.5,-8.6,15.1,-11.3c36.3,-16.9,71.6,-31.7,107.9,-49.7c4.8,-2.4,13.8,-8.8,19.3,-6.1c7.1,3.4,.8,17.2,-1,20.6c-6.8,13.6,-14.4,22.8,-22,34.3c-3.8,5.6,-8.2,11.3,-10.8,17.4c-7.3,16.9,-11.3,38.3,-11.3,61c0,22.5,5.1,42.6,12.2,60.1c7.1,17.4,15.9,31.3,29.6,42.7c11.9,9.9,26.9,22.1,53.5,18.8c19.1,-2.4,31.3,-17.3,40.4,-31.9c6.4,-10.4,11.6,-23.8,14.5,-36.7c1.8,-7.5,3.2,-15.4,3.8,-22.5c3.6,-46.8,-13.5,-87.8,-35.2,-110.8c-3,-3.1,-10.2,-10.2,-15,-10.3c-4.7,-.1,-11.2,4.7,-15.1,8c-4.4,3.8,-7.8,8.5,-10.3,12.7c-4.1,6.8,-6.7,16.7,-11.7,22c-3.3,3.5,-9,7.8,-14.6,8c-8.1,.3,-15.3,-5.3,-16.9,-11.3c-1.6,-6.4,2.3,-17.3,4.7,-23.4c11.4,-29.2,29.9,-52,62,-60.1c9.5,-2.4,22.8,1,29.6,4.7c9.8,5.2,16.2,14.5,23.4,23.4c19.9,24.9,34.6,63.8,37.6,103.3c2.6,34.8,-4.2,65.8,-14.1,91.1c-5.2,13.2,-12.5,27.2,-22.1,37.1c-9.9,10.3,-19.6,20.9,-31.4,27.6c-19.8,11.4,-47.4,15.1,-70.9,7.1c-14,-4.8,-28.3,-15.7,-39,-26.3c-27,-27.1,-45.6,-63.9,-50.2,-113.1c-1.8,-19.6,-1.2,-40.8,1.9,-58.7c1.5,-8.4,4.7,-16.4,3.7,-25.4Z" class="g0"/>
<path fill-rule="evenodd" d="M250.2,1170.7c48,6.1,96.1,11.5,144.3,16.1l-85,-8.4l-10.4,-1.3l-48.9,-6.4Z" class="g1"/>
<path fill-rule="evenodd" d="M1479,1169.7l-20.9,-11.1c.1,4.2,-.8,8.3,-2.4,12.1c-1.3,8.6,-2.7,17.1,-4.4,25.6c-1.1,5.8,-2.2,11.6,-3.1,17.5c-9.5,57.8,-19.5,115.5,-30.2,173.1c-10.3,57.5,-20.2,115.1,-29.5,172.8c-1.6,10.1,-3.4,20.1,-5.2,30.2c-1.6,9,-3.1,18,-4.6,27.1c-3.3,20.3,-6.8,40.5,-10.6,60.7c-3.3,18.1,-6.7,36.2,-10.1,54.3c-1.9,10.3,-3.6,20.6,-5.1,30.9c-1.3,9.1,-2.7,18.1,-4.3,27.1c-1.8,10.5,-3.6,21,-5.4,31.5l-4.5,26.2C1298.3,2078.3,1259,2309,1221,2539.9c-11.2,67.5,-22.6,135,-34.2,202.4c-8.3,48,-16.4,96.1,-24.5,144.1l-7.5,45.4c-2.3,13.9,-4.9,27.8,-7.7,41.7l-10.3,52.5l-45,1.8l-37.7,.2c-11.6,.1,-23.1,.1,-34.6,-.2c-7.6,-.2,-15.1,-.1,-22.7,0c-8.2,.2,-16.3,.2,-24.5,0c-29.8,-1,-52.2,-.9,-84.8,-.7c-18.6,.2,-37.3,.3,-55.9,.2c-54.4,-.2,-108.8,-.1,-163.2,.1c-39.6,.2,-79.2,.3,-118.8,.4c-7.7,0,-15.3,-.1,-23,-.3c-7.7,-.2,-15.5,-.3,-23.2,-.2c-31.9,.4,-63.7,.6,-95.5,.5l-68.1,.9l-8.7,-53.2c-.9,-6.3,-2,-12.5,-3.2,-18.7c-2.8,-14.1,-5.2,-29.2,-7.4,-43.5c-1.2,-8.2,-2.5,-16.3,-3.9,-24.5c-13.3,-77.7,-26,-155.6,-38,-233.6c-1.6,-9.7,-3.3,-19.4,-5,-29.1c-1.8,-9.7,-3.4,-19.4,-4.9,-29.1c-4.9,-31.8,-10,-63.5,-15.3,-95.1c-4.4,-26.6,-8.7,-53.3,-12.9,-80c-1.5,-9.9,-3.2,-19.8,-5,-29.6c-1.7,-9.5,-3.3,-19.1,-4.8,-28.6c-5.1,-32.8,-9.6,-58.4,-15.9,-93.8c-4.9,-26.6,-9.4,-53.1,-13.7,-79.8c-8.7,-54.5,-15.5,-93.6,-26.1,-153.7C166.9,1991,159.2,1945.5,151.8,1900c-4,-24.9,-5.1,-32.4,-9.7,-57.2c-1.1,-5.6,-2,-11.1,-2.7,-16.8c-.6,-4.2,-1.3,-8.5,-2,-12.8c-2.9,-15.2,-5.6,-30.4,-8.2,-45.7c-10.5,-62.2,-23.6,-138,-34.8,-201.9c-7.5,-42.7,-15,-85.5,-22.3,-128.2c-1.5,-8.5,-2.9,-17,-4.2,-25.4c-1.7,-10.7,-3.5,-21.3,-5.6,-31.8c-3.9,-19.7,-7.4,-39.5,-10.6,-59.3c-3.1,-18.6,-6.4,-37.2,-10,-55.7c-3.2,-15.3,-6.1,-30.7,-8.8,-46.1c-2.5,-13.8,-4.6,-27.8,-6.5,-41.8c-.5,-2.9,-1.1,-5.8,-1.9,-8.7c-.7,-2.8,-1.3,-5.7,-1.8,-8.6c-.7,-3.7,-.9,-7.5,-.6,-11.2c0,-5.2,1.3,-10.3,3.8,-14.9c.2,-.7,.5,-1.5,.7,-2.3L4.3,1128c-2.7,6.4,-4.1,13.2,-4.2,20.1c-.2,5.3,0,10.6,1,15.8c.6,3.4,1.3,6.8,2.1,10.2c.6,2.2,1.1,4.4,1.5,6.6c1.9,14.1,4,28.2,6.5,42.3c2.8,15.5,5.7,31.1,8.9,46.5c3.6,18.3,6.9,36.6,9.9,54.9c3.2,20.1,6.8,40.1,10.7,60c2,10.3,3.8,20.6,5.5,31c1.3,8.6,2.7,17.1,4.2,25.7c7.4,42.8,14.8,85.6,22.3,128.3c11.2,63.9,24.3,139.6,34.8,201.7c2.6,15.4,5.3,30.8,8.2,46.1c.7,3.9,1.4,7.8,1.9,11.8c.8,5.9,1.7,11.9,2.8,17.8c4.5,24.3,5.8,32.3,9.7,56.7c7.4,45.6,15.1,91.2,23.2,136.7c10.7,60,17.4,99,26.1,153.4c4.3,26.8,8.9,53.5,13.7,80.2c6.2,34.6,10.8,60.8,15.8,93.3c1.5,9.7,3.2,19.4,4.9,29.1c1.8,9.7,3.5,19.4,5,29.2c4.2,26.7,8.5,53.4,12.9,80.1c5.3,31.6,10.4,63.2,15.2,94.8c1.6,10,3.2,19.9,5,29.7c1.8,9.6,3.4,19.1,4.9,28.7c12.1,78,24.8,156,38.1,233.8c1.4,8,2.7,16,3.9,24c2.2,14.7,4.7,30.1,7.5,44.6c1.1,5.9,2.2,11.8,3.1,17.8l11.7,72.1l86.9,-1.2c31.9,.1,63.8,-.1,95.6,-.5c7.5,-.1,15,0,22.5,.2c7.8,.2,15.6,.3,23.5,.3c39.6,0,79.3,-.2,119,-.4c54.3,-.2,108.6,-.3,162.9,-.1c18.8,.1,37.5,0,56.2,-.2c31.4,-.2,54.7,-.2,83.9,.7c8.6,.2,17.2,.2,25.8,0c7.2,-.1,14.4,-.2,21.6,0c11.7,.3,23.5,.3,35.2,.2l38.1,-.2l62.7,-2.5l13.7,-69.5c2.8,-14.1,5.4,-28.2,7.8,-42.4L1184,2890c8.1,-48,16.2,-96,24.5,-144c11.6,-67.5,22.9,-134.9,34.2,-202.5c38,-230.8,77.3,-461.5,117.7,-692l9.9,-57.7c1.6,-9.2,3.1,-18.5,4.4,-27.7c1.4,-10.1,3.1,-20.1,4.9,-30.1c3.4,-18.1,6.8,-36.2,10.2,-54.3c3.7,-20.4,7.3,-40.7,10.6,-61.1c1.5,-9,3,-17.9,4.6,-26.9c1.8,-10.1,3.6,-20.3,5.3,-30.4c9.2,-57.6,19,-115.1,29.4,-172.4c10.7,-57.8,20.7,-115.6,30.2,-173.5c.9,-5.7,1.9,-11.3,3,-16.9c1.6,-8,3,-16.1,4.2,-24.1c.8,-2.2,1.4,-4.4,1.9,-6.7Z" class="g2"/>
<path fill-rule="evenodd" d="M1458.1,1158.6l20.9,11.1c1.1,-.9,2.2,-1.9,3.2,-2.8c3.6,-3.1,6.9,-6.6,9.7,-10.4l1.5,-2.1c4.5,-7.8,8.2,-15.9,11,-24.4c2.5,-7.6,4.3,-15.3,5.6,-23.2c2.1,-13.9,2.9,-27.9,2.9,-42c-.2,-35.9,-8.6,-71.2,-24.6,-103.4c-22.6,-45.2,-51.8,-86.8,-86.8,-123.3c-18.2,-19,-37.6,-36.8,-58.2,-53.3c-22.1,-17.8,-45.2,-34.4,-69.1,-49.7c-12,-7.8,-23.4,-14.7,-36,-21.7c2.6,-1.4,5.2,-2.9,7.7,-4.5c23.2,-15.5,37.9,-40.2,43.9,-67c9.6,-42.3,.2,-85.2,-18.4,-123.7c-14.7,-30.6,-35.1,-61,-57.7,-86.4c-11.1,-12.5,-22.7,-24.5,-34.9,-35.9c-10.5,-10,-21.2,-19.7,-32.2,-29.2c-20.2,-17.4,-38.2,-30.1,-61.5,-43.1c-6.8,-3.8,-13.7,-7.6,-20.6,-11.2c-13.7,-7.3,-25.6,-13.7,-38.3,-21.6c-5.3,-3.3,-10.7,-6.6,-16,-9.9C993.9,271.1,975,259.6,961.1,246.3c-10.1,-9.8,-20,-19.8,-29.7,-29.9c-4.8,-5,-9.6,-10,-14.4,-15c-3.1,-3.2,-5.8,-6.8,-8.1,-10.6c-3.2,-5.3,-6.5,-10.6,-9.9,-15.9c-.3,-.4,-.6,-.9,-.9,-1.3c11.4,-2.6,21.7,-8.7,29.5,-17.4c4.7,-5.2,8.7,-11,11.7,-17.4c10.5,-21.6,12.2,-45.9,5.6,-68.9C937,42.2,916.9,20.5,890.5,9.4C878.5,4.3,865.8,1.3,852.9,.3C835.4,-1,820.2,2.4,804.1,10.7c-2,1,-4,2,-6,2.9C784,20,770,26.6,756,33.3c-15.2,7.4,-30.5,14.9,-45.6,22.6c-22.3,11.2,-44.6,22.3,-67,33.2c-6.6,3.2,-13,6.7,-19.3,10.4c-4.7,2.7,-9.4,5.4,-14.3,7.9c-8.7,4.4,-17.2,9,-25.7,13.9c-7.9,4.5,-15.8,8.9,-23.9,13.1c-4.4,2.3,-8.6,4.9,-12.6,7.8c-.8,.5,-1.6,1,-2.5,1.5c-11.4,5.5,-22.6,11.5,-33.6,17.8c-11.4,6.6,-22.8,13.2,-34.1,19.9c-26.3,15.3,-45.2,27.3,-66.9,45.4c-10.1,8.4,-19.8,17.4,-29,26.8c-11.2,11.5,-21,24.3,-29.3,38c-8.7,14.5,-15.5,28,-21.2,43.4c-6.5,17.7,-10.3,36.3,-11.1,55.1c-1.8,42.4,8.3,81.8,30.9,117.5c-11.6,2.5,-23.1,5.6,-34.3,9.3c-5,1.6,-9.9,3.2,-14.8,4.9c-6.5,2.1,-12.8,4.5,-19.1,7.1c-9.2,4,-15,8,-23.4,12.8c-22.7,12.7,-43.1,29.1,-60.4,48.6c-12.8,14.4,-23.4,30.6,-31.5,48.1c-8.9,19.2,-14.3,39.9,-15.9,61.1c-2.4,30.5,2.6,60.5,15,88.3c7,15.7,16.5,32.1,27,46.1c-11.4,5.2,-22.5,11,-33.3,17.3c-14.3,8.4,-28,17.7,-41,28C104.5,890.8,91,903.7,78.8,917.9c-34.7,39.9,-58,83.8,-68.7,135.9c-3.7,18.1,-5.8,36.6,-6.5,55.1c-.1,5.7,.3,12.1,.8,17.8c0,.4,0,.7,0,1.1c0,.1,0,.2,-.1,.2l22.3,3.6c.1,-.5,-.2,-6,-.3,-6.8c-.4,-4.8,-.8,-10.4,-.7,-15.2c.6,-17.3,2.6,-34.5,6.1,-51.4c6.5,-32.2,19,-62.8,36.8,-90.3c8.1,-12.5,17.1,-24.4,26.9,-35.6c21.9,-25.2,46,-44.7,75.8,-62.1c18.7,-10.9,38.5,-20.4,59.1,-27.3C218.4,831,209.2,819.2,200.5,805.3C190.4,788.9,182,771.3,177.4,752.4c-4.1,-16.7,-5.4,-34,-4.1,-51.2c1.4,-18.6,6.2,-36.7,14,-53.6c7.2,-15.5,16.6,-29.9,27.9,-42.7c15.7,-17.7,34.3,-32.6,54.9,-44.1c7.2,-4.1,13.6,-8.4,21.2,-11.7c5.7,-2.3,11.5,-4.5,17.4,-6.5c4.8,-1.6,9.7,-3.2,14.5,-4.7c22.1,-7.2,44.6,-12.4,67.9,-13.5c-14.8,-16.8,-26.5,-34,-35.3,-54.3c-5.7,-13.2,-9.7,-27.2,-11.9,-41.5c-1.9,-12.4,-2.5,-25,-2,-37.6c.7,-16.5,4,-32.9,9.7,-48.4C356.8,328.5,363,316.2,371,303c7.5,-12.3,16.3,-23.7,26.3,-34.1c8.6,-8.8,17.8,-17.3,27.3,-25.2c10.6,-8.9,21.7,-17.1,33.2,-24.5c10.1,-6.6,20.3,-12.8,30.7,-18.8c11.3,-6.7,22.6,-13.3,34,-19.8c10.6,-6.1,21.5,-11.9,32.6,-17.3c1.8,-1,3.6,-2.1,5.3,-3.3c3.2,-2.2,6.5,-4.3,9.9,-6.1c8.4,-4.3,16.7,-8.8,24.9,-13.6c8,-4.7,16.3,-9.1,24.6,-13.3c5.2,-2.7,10.4,-5.6,15.5,-8.6c5.8,-3.4,11.7,-6.6,17.7,-9.5c22.5,-11,44.9,-22.1,67.3,-33.4c15,-7.6,30.2,-15,45.3,-22.4c13.8,-6.7,27.7,-13.2,41.6,-19.5c2.4,-1,4.7,-2.1,6.9,-3.3c11.9,-6.1,23,-9.2,37,-8.1c10.6,.8,21.1,3.3,30.9,7.5c20.2,8.5,35.7,25,41.7,46.2c2.5,8.7,3.5,17.7,2.9,26.8c-.6,9.2,-3,18.2,-7.1,26.5c-8.4,17.3,-24.4,28.4,-44.2,21.6c-2.2,-.7,-4.4,-1.6,-6.5,-2.5l-8.4,-3.8c-1.3,-.5,-2.6,-1,-4,-1.4c.4,1,.9,2.1,1.3,3.1c6,14.7,14.2,27.4,22.8,40.7c3.3,5.1,6.5,10.2,9.6,15.3c3.1,5.2,6.8,10,11,14.4c4.8,5,9.6,10,14.4,15c9.9,10.4,20,20.6,30.3,30.5c15.4,14.8,34.9,26.7,53,37.6c5.3,3.2,10.5,6.5,15.8,9.8c13.1,8.2,25.3,14.7,39.6,22.3c6.8,3.6,13.5,7.3,20.2,11c22.1,12.3,38.7,24.1,57.9,40.6c10.7,9.3,21.1,18.7,31.4,28.5c11.7,11,22.9,22.5,33.6,34.5c21.2,23.9,40.5,52.7,54.3,81.3c7.2,14.8,12.6,30.3,16.2,46.3c2.4,10.6,3.7,21.5,3.8,32.4c.2,10.3,-.9,20.6,-3.2,30.6c-2.4,10.7,-6.6,20.9,-12.3,30.2c-5.7,9.3,-13.3,17.3,-22.4,23.3l-.4,.3c-3.7,2.4,-7.6,4.4,-11.7,6.2l-7.9,3.4c-10.9,4.7,-22.4,8.3,-34.3,9.8l4.7,1.9c26.7,10.2,54.9,26.4,78.2,41.5c23.3,14.9,45.7,31,67.3,48.3c19.7,15.9,38.4,33.1,56,51.4c33.4,34.9,61.4,74.7,83,117.9c14.5,29.1,22.1,61.2,22.3,93.7c0,19.1,-1.4,39.9,-7.4,58.2c-2.2,6.7,-5.1,13.1,-8.6,19.3l-.8,1c-1.8,2.6,-3.9,4.9,-6.3,6.9c-3.1,2.7,-6.4,5.4,-9.7,7.8c0,.2,0,.3,0,.5Z" class="g0"/>
<path fill-rule="evenodd" d="M314.9,1177.2c44.7,6.3,85.4,10.8,131.1,14.9c210,19,425.5,21.8,635.7,-1.1C1028.8,1159.7,975.6,1127.8,916,1103.9c-45.5,-18.3,-87.9,-33.4,-136.7,-47c-27.9,-7.8,-59,-14.2,-90.5,-18.5c-82.4,-11.2,-191,-16.1,-266.5,2.6c-19.6,4.9,-40.4,9.3,-58.1,15.4c-18.8,6.4,-30.3,17.9,-42.8,31.1c-12.2,12.9,-22.7,29,-20.6,55.4c1.1,13.7,7.5,25.1,14.1,34.3Z" class="g0"/>
<path fill-rule="evenodd" d="M47.3,1139.2c1.5,-1.1,3.4,-1.6,5.3,-1.3c3.3,.6,6.6,1.3,9.9,1.9c-2.3,-6.2,-1.9,-17.6,-1.9,-25.7c0,-73.9,27.4,-120,59.3,-158.9c18.2,-22.1,41.2,-40.7,67.4,-55.4c18.1,-10.2,40.3,-21.1,63.8,-27.5c8.1,-2.2,17.1,-5.9,24,-6.3c3.5,-.2,6.6,1.6,11,1.6c4.2,-.1,8.5,-1.5,12.9,-1.6c32.5,-1,65.1,-1.4,98.3,-1.1c18.1,.2,35.4,4,52.9,5.3c17,1.3,33.6,5.3,49.9,7.9c65.6,10.5,127.5,27.6,187.1,46c87.7,27.1,168.3,67.1,243.4,108.2c18.9,10.3,37.8,21,56.4,32.2c6,3.6,11.8,8.1,17.9,11c5.6,2.7,11.7,3.9,17,6.9c14.6,8.4,29.8,18,46.4,24.8c11.3,4.6,23.4,7.4,35.9,11.1c12.1,3.5,25.2,6.4,38.4,8.4c26.9,4.2,58,8.6,85.3,4.3c7.1,-1.2,14.1,-2.3,21,-2.7c48.2,-2.7,86.5,-25.6,106.2,-59.6c5.8,-10,11,-24,11,-37.5c-.1,-42.2,-38.6,-64.1,-75.3,-67.6c-15.4,-1.4,-29,-.9,-42.9,1.6c-12.5,2.2,-22.1,7.9,-35.9,11.1c-21.1,-31.1,-7.7,-75.7,7.9,-98.7c9.1,-13.4,20.1,-22.5,32.5,-31.1c13.3,-9.4,27.4,-13.3,44.9,-17.5c10.9,-2.6,26.9,16.4,33.9,22.7c19,17.4,38.4,35.1,54.4,55.5c23.6,30.1,46.7,64.7,60.8,105c9.3,26.6,14.2,68.1,1,94c-10.8,21.3,-25.3,32.2,-42.7,42.5c-13.5,3.6,3.5,.5,3.5,.5c3.9,-.5,7.4,2.5,7.9,6.7c.4,-.1,-2.9,6.4,-2.5,6.2c4.7,-2.2,39.9,-26.5,42.8,-31.7c9.5,-16.7,12.5,-38,12.5,-65.4c0,-32.5,-9,-61.9,-20,-83.9C1402.8,889,1333.7,826,1250.4,772c-19.7,-12.7,-41.7,-25.6,-65.4,-35.9c-11.2,-4.8,-23,-7.9,-34.4,-15.8c-4.2,-2.9,-8.1,-6.9,-13.5,-12.1c-3.7,-3.6,-10.9,-10.1,-9,-15.3c1.6,-4.2,10.9,-4.6,14,-4.8c8.4,-.4,16.1,1.1,23.5,1.1c14.6,0,28,-4.1,39.4,-9c5.6,-2.4,11.6,-4.7,16.4,-7.9c24.9,-16.4,33.6,-54.5,25,-93.4c-7.3,-33,-24.2,-61.7,-39.9,-85c-16,-23.7,-37,-46.3,-57.9,-66c-21.4,-20.1,-43.6,-40.4,-67.3,-55.4c-24.9,-15.8,-53.4,-28.7,-78.4,-44.4C978,312.4,951.5,298.3,930.6,278c-10.1,-9.8,-20.9,-20.5,-30.9,-31.2C889.7,236.3,879,226.7,871.2,213.6c-11,-18.7,-24.7,-36.3,-33.9,-59.1c-5,-12.3,-11.6,-27.5,1,-32.7c9.9,-4.2,21.4,-1.4,30.9,2.6c7.2,3,14.3,7.1,19,6.3c9.5,-1.5,15.9,-18.5,16.5,-29.5c1.6,-35.6,-24,-54.6,-55.4,-57C834.5,43,827.5,48.7,816.4,53.7C763.9,77.2,712.9,104.4,662.7,128.6c-11.3,5.5,-21.9,12.5,-32.9,18c-16.8,8.3,-32.4,18.3,-49.4,26.9c-5.5,2.7,-10,6.9,-15.5,9.5c-21.6,10.3,-43.6,23.7,-65.3,36.4C478,232,457.2,244.9,438.7,260.6c-18.1,15.3,-35.3,31.3,-48.9,53.8C377,335.8,365.1,361,363.9,392c-2.6,65.3,29.2,104.9,60.8,135.7c4.3,4.1,10.4,8.4,11,15.8c-5.4,3.9,-12.1,1.7,-17.9,1.6c-6.4,-.2,-12.9,1,-19,1c-25,.3,-48.4,6.1,-68.8,12.7c-10.2,3.3,-20.7,6.6,-30,10.6c-6.3,2.6,-12.8,7.1,-18.9,10.5c-18.6,10.4,-35.4,23.7,-49.4,39.6c-17.8,20.2,-33.9,48.8,-36.4,83.4c-2.9,39.1,9.2,66.7,23.9,90.8c10.9,17.6,24.1,32.4,39.4,45.4c4.8,4,11.6,6.5,14,13.2c-7,6,-16.2,5.7,-23.9,7.9c-23.7,6.6,-46.3,17.2,-66.4,29C155.5,905,132.5,923.1,112,946.7c-34,39.2,-61.6,88.8,-64.4,163.7c-.3,9.1,2.7,24.2,-.3,28.8ZM884.7,76.4c4,8.4,3.5,22.6,-.5,32.2c-6.1,1.5,-11.4,.1,-16.5,-.6c-5.3,-.6,-9.9,-2.6,-14.4,-3.1c-7.8,-.9,-17.2,-.6,-25,.5c-16.8,2.3,-31.9,4.8,-45.4,10.5c-14.2,6.1,-25.4,14.9,-35.4,24.9c-5.4,5.4,-10.3,9.9,-14.5,15.8c-4.2,6,-7.6,11.9,-11.4,19c-20.7,37.8,-30.4,100,-18.5,156.2c3.6,17.1,7.9,33.2,13,48.6c5.1,15.3,11.7,29.3,17.9,43.3c24.9,55.2,64.7,98.7,112.8,129.3c12.2,7.8,25.7,13.5,39.4,20c19.6,9.5,39.3,20.6,57.9,32.2c5.8,3.7,11,8.7,16.9,12.7c11.8,8,23.1,17.1,33,27.5c5.2,5.5,11.1,8.9,15.4,14.7c4.3,5.8,9.6,10.8,13,16.9c14.7,26.2,15.6,59.5,2,87.1c-2.7,5.5,-6.9,10.6,-11.5,15.9c-4.2,4.7,-8.4,10.1,-13,14.2c-9.3,8.4,-22.9,15,-34.9,18.5c-49.3,14.4,-92.6,-4,-118.2,-31.2c-8.4,-8.8,-17.1,-21.3,-20.5,-33.7c-4.6,-17,.7,-32.2,12.5,-38.6c6.7,-3.6,24.3,-6.9,29.4,1.1c2.4,3.7,1.5,14.3,3,19.5c8.5,29.4,47.9,47.6,83.3,44.3c6.1,-.5,18.6,-4.6,24.5,-6.8c8.1,-3,20.5,-16.1,24.4,-25.4c14.1,-33.3,-16,-60.5,-39.9,-68c-7.2,-2.3,-14,-2.4,-23.4,-3.2C908.3,667.8,875.4,663.1,845.8,658C783.1,647.2,724.7,634.8,670.7,618.4c-26.4,-8,-55.4,-14.5,-83.3,-24.2c-20,-7,-40.5,-13.3,-60.4,-20.6c-12.5,-4.6,-24.8,-11,-36.4,-18c-5.8,-3.5,-12.1,-5.9,-17.5,-9.5C451.8,532.2,430.5,516.9,414.3,496C391,466,369.7,425.5,379.9,370.4c8,-43.8,35.7,-76.7,64.8,-100.3c5,-4.1,11.2,-6.6,16.5,-10.6c5,-3.8,9.9,-8.2,14.9,-12.1c10.2,-7.9,22.3,-14.4,33.5,-21.1c11.7,-7,23,-14.1,33.9,-20.1c46.7,-25.5,92.3,-52.1,140.2,-76.5c23.8,-12.2,48.7,-22.8,72.8,-35.4C768.1,88.2,780.9,82,793.4,76.9c6.3,-2.6,11.8,-6.4,18,-9c11,-4.7,18,-11.2,32.4,-12.7c16.1,-1.6,35.2,9.2,40.9,21.2Z" class="g0"/>
<path fill-rule="evenodd" d="M665,2010.6c1.5,-12.3,6.5,-25,9.4,-38.5c2.9,-13.2,5,-27.4,6.1,-41.3c.8,-9.7,-2.4,-29,8.9,-28.6c8.5,.2,12.7,12.8,16.5,19.7c4.6,8.2,9.6,15.2,13.6,22c6.6,11.2,12.7,21.2,20.6,32.9c2.6,3.7,6.9,7.2,6.6,11.3c-.5,8.6,-19.1,10.4,-28.2,12.6c-10,2.5,-24.1,8.4,-35.6,12.2c-7.7,2.6,-15.2,4.9,-17.9,-2.3Z" class="g2"/>
<path fill-rule="evenodd" d="M466.9,1607.3c3.8,-3.2,14.1,-10.6,12.7,-18.3c-1.1,-6.4,-9.2,-6.5,-17.4,-6.1c-23.5,1.4,-35.6,10.8,-53.9,19.3c-17.2,7.9,-33.4,16.2,-49.8,23.5c-5.9,2.6,-11.4,5.7,-16.9,7.9c-11,4.5,-21.7,10.9,-33.3,15.5c-11.5,4.5,-22.4,10.5,-33.4,15.5c-10.5,4.9,-22,9.4,-32.8,16c-11,6.6,-21.5,12.2,-25.4,23.9c-8,24.6,9.2,43.7,29.6,46c8.1,.9,18.5,-5.8,22.5,-3.3c5.1,3.3,.1,16.4,-.9,21.6c-3.2,16.1,-5.9,31.3,-8,46.5c-1.6,11.8,-2.4,27.5,-2.3,39c.1,14.5,.8,29.7,2.3,44.6c5.8,56.2,24.4,106.1,47.4,145c15.8,26.7,32.9,53.1,56.4,71.8c11.6,9.3,25,17.2,39.9,24c10.2,4.6,24.5,9.3,37,10.8c4.8,.5,9.6,1.9,14.1,2.3c18.9,2,37.6,-3.2,54.5,-5.1c5.8,-.7,13.4,-2.2,18.8,-1.4c10.9,1.5,11.6,17.5,14.5,28.1c1.1,3.9,2.9,7.4,3.3,10.4c1.6,13,-4.6,14,-11.7,17.8c-14.4,7.6,-32.9,14.6,-38.1,29.6c-7.5,22.1,7.1,43.5,31,41.7c8.6,-.6,16.8,-6.5,24,-9.3c16.5,-6.6,17.8,9.9,21.1,21.1c2.4,8.1,5.4,19,7.5,27.7c3.5,14.2,7.7,27,11.3,40.8c1.1,4.5,2.9,10.3,1.4,15.5c-1.9,6.4,-20.2,12.8,-29.1,16.9c-10.3,4.8,-20.8,9.9,-29.6,14.1c-4.7,2.3,-8.6,6.1,-13.6,8c-16.5,6.2,-30.2,12.8,-45.1,20.6c-4.8,2.6,-9.9,4.7,-15,6.6c-5.2,1.9,-9.7,5.2,-14.6,7.5c-9.9,4.6,-19.3,9.7,-28.6,15c-4.6,2.7,-10,3.7,-15,6.6c-13.7,7.8,-31.4,13.9,-41.8,23.9c-11.9,11.6,-22.2,38.2,-14.5,59.2c5.2,14.5,28.1,30.3,49.7,26.7c5,-.8,12.2,-5.3,19.7,-8.4c13.5,-5.6,23.8,-10.1,37.1,-16.9c4.7,-2.4,12.8,-8.9,19.3,-8c8.9,1.2,11.2,19.3,13.6,28.7c3,12,6.3,23.4,8.9,33.8c1.4,5.6,3.5,10.7,4.7,16.4c3,14.8,6.5,29.7,10.8,42.7c.9,2.7,2.7,5,3.3,7.5c1.5,6.9,1.9,11.9,3.3,16.4c1.5,5.3,1.4,10,3.2,16.5c1.1,3.8,3.5,7.2,4.3,11.2c.8,4.5,1.6,8.5,2.8,12.7c7,25,12.5,50.1,19.2,75.1c6.4,23.8,13.1,50.4,19.7,74.7c2.4,8.7,3.7,17.7,7.1,24.4c4.7,9.4,15.7,15.7,25.3,18.3c11.5,3,25.3,.2,35.7,-5.7c12.9,-7.2,23.3,-24.9,23,-43.1c-.2,-11.9,-2.5,-25.7,-5.1,-36.2c-6.2,-24.6,-10.7,-41,-16.9,-66.2c-1.1,-4.2,-11.4,-29.9,-1.5,-31c4.6,-.5,10.6,7.7,14.6,10.8c5.3,4.3,10.9,7.5,15.5,10.4c20.7,13,44.9,24.5,77,25.3c50.1,1.2,83.4,-20.6,106.5,-47.9c11.2,-13.1,23.4,-27.5,30.5,-46.4c2.5,-6.5,5,-14.3,11.8,-14.1c6.3,.2,10.2,9.6,12.7,17.8c7.5,25,12.2,49.8,19.2,73.7c8,27.4,14.6,58.2,23,85c1.3,4.3,1.9,8.6,3.3,12.2c5,12.7,21.1,23.5,38,23.5c10.9,-.1,20.9,-4.4,28.2,-9.4c9.3,-6.4,17.5,-19.3,18.8,-31.9c.7,-7.4,-1.2,-14.4,-2.9,-21.2c-9.6,-40.2,-19.8,-77.1,-30.5,-115.5c-3.6,-13.1,-9.5,-29.6,6.6,-32.4c13.3,-2.2,23.6,-3.9,33.8,-8.9c29.1,-14.1,51.7,-33.9,68.1,-61c21.7,-36,36.1,-81,36.1,-136.1c0,-29.1,-3.8,-53.5,-9.8,-76.1c-12.4,-46.3,-31.9,-80.3,-64.8,-107c-11.7,-9.5,-26.6,-16,-42.3,-22.5c-3.2,-1.4,-13.1,-4,-13.6,-8c-.3,-2.5,2.6,-6,3.3,-7.1c1.4,-2.2,2.7,-4.8,3.3,-7c5.2,-19.8,-9.6,-30.3,-23.5,-33.3c-8.9,-2,-19.2,-2.6,-20.2,-11.8c-.6,-5.8,3.5,-13.3,4.7,-18.8c4.5,-20,4.7,-42.9,1,-63.8c-4.8,-26.4,-13.9,-47,-29.6,-64.3c-14.8,-16.3,-42.8,-25.8,-70,-16.4c-17,5.8,-30.2,16.4,-41.3,29.1c-3.8,4.4,-7.6,10.3,-13.1,10.3c-5.9,0,-10,-5.9,-16,-8c-12.8,-4.4,-31,-.2,-42.7,4.3c-2.6,.9,-9.3,5.1,-13.1,2.3c-4.9,-3.6,.5,-10.2,2.3,-14.1c1.9,-3.9,3.4,-7.2,5.2,-11.7c3.3,-8.5,3.2,-20,12.7,-21.1c4.1,-.5,9.3,2.7,14,2.8c13,0,24.6,-9.3,32.9,-17.9c18.2,-18.9,27.7,-39.4,35.7,-65.7c3.8,-12.7,8.5,-28.1,9.4,-41.8c.4,-7.1,-3.1,-23.3,4.7,-23.9c5,-.4,8.8,9.1,12.2,13.6c11,15.1,26.5,27,41.7,36.1c20.3,12.2,58.5,17,85.5,7.1c42.3,-15.6,73.3,-49.6,91.5,-90.1c1.5,-3.4,5.8,-15.2,11.3,-15.1c5.5,.2,13.8,15.8,16.4,18.8c7.9,9.2,24,19.4,39,12.2c7.4,-3.6,18.4,-14.6,21.6,-20.6c6.3,-12.1,12.2,-27.1,12.2,-42.8c0,-.6,0,-1.2,0,-1.8c-1.9,-15.6,-6.2,-31.8,-8.5,-48.4c-2.3,-16.4,-7.8,-33,-8,-49.3c0,-6.7,.7,-14.8,1,-22.5c.5,-14.9,2.5,-29.3,5.1,-41.8c1.5,-6.6,2.5,-13.9,4.7,-19.2c1.9,-4.5,6.9,-10.8,11.8,-10.8c5.6,-.1,8.1,5.2,11.2,8c3.1,2.6,7.9,6.2,12.7,6.5c11.5,.7,23.7,-14.8,27.7,-23.9c4.9,-11.1,5.7,-32.1,3.8,-47c-.9,-6.6,-3.1,-13.5,-4.3,-20.1c-1.2,-7.4,-1.6,-14.6,-4.2,-20.7c-4.6,-10.9,-11.4,-21.3,-19.7,-29.6c-7.4,-7.4,-19.9,-16.8,-31,-18.8c-20.3,-3.5,-35.8,2.3,-48.3,12.7c-7.6,6.3,-17.2,15.2,-20.7,24c-2.5,6.1,-.6,14.5,-7,15.5c-4.6,.6,-6.6,-2.5,-8.9,-4.3c-8.6,-6.7,-22.3,-12.4,-34.3,-5.6c-12.6,7.1,-19.4,21.6,-22.6,39c-1.1,6.4,-.4,22.2,-5.1,23.9c-5.6,2,-17.7,-9.5,-22.5,-12.2c-22.8,-12.7,-54.1,-17.7,-84.5,-8.5c-16.8,5.1,-31.7,14.9,-43.7,24.9c-5.7,4.8,-11.6,9.8,-17.4,16.9c-5.2,6.4,-12.1,17.7,-20.2,12.7c-1.8,-1.2,-4.7,-14.7,-6.1,-18.3c-6.9,-19.1,-15.2,-35.5,-24.8,-49.8c-12.6,-18.6,-28.6,-36.5,-49.3,-49.7c-17.7,-11.3,-46.1,-23.6,-78,-17.4c-6.3,1.2,-11.2,4.2,-17.3,7c-12.3,5.9,-21,10.3,-29.6,20.2c-3.1,3.6,-8.9,11.1,-8.4,16.5c.4,6,10.4,11.9,16.9,16.4c7.3,5,14.4,8.9,20.1,13.1c11.8,8.7,24.1,21.8,34.3,32.4c10.2,10.6,22.4,21.8,29.1,37.6c4.8,11.2,9.5,25.1,11.7,38.5c.7,4.2,3.6,11.7,2.9,15c-2.3,11,-1.8,24.8,-2.4,39.4c-.5,12.4,-1.9,27,-1.9,40.4c0,19.3,-2.8,40.5,-2.8,60.6c0,3.1,.5,5.5,-.4,9.8c-4.1,17.9,-15.8,-9.7,-19.8,-16.4c-10.2,-17.3,-18.2,-31.3,-27.7,-47.9c-4.5,-8,-8.9,-16.8,-14,-23.9c-5,-6.9,-13.7,-14.8,-20.2,-19.3c-10.1,-6.9,-27.7,-12.1,-42.7,-5.2c-4.6,2.2,-10.4,9.5,-16.9,9c-6.9,-.5,-11,-9.6,-16,-16c-4.8,-6.2,-10.9,-11.8,-15.5,-16.4c-22,-22,-45.1,-40.1,-76.5,-51.2c-11.9,-4.2,-24.7,-8.4,-39.4,-8.4c-3.8,-.1,-9.1,2.1,-12.7,-1.4c.8,-5.3,2.2,-4.8,3.7,-6.2ZM456.1,1271.7c-8.2,14.9,-14.9,27.3,-23.4,43.2c-3.9,7.3,-10.6,15.6,-10.8,22.5c-.2,6.2,3.5,14.2,5.1,21.1c1.7,7,5.6,16.1,3.8,21.6c-3,9.2,-14.2,3.9,-20.7,2.9c-27.2,-4.5,-50,9.1,-61.5,21.6c-4.2,4.6,-10.3,18.4,-19.7,17.3c-8.4,-1,-10.9,-24.6,-13.1,-32.4c-2.2,-7.9,-5.8,-31.7,-12.7,-33.3c-2.9,-.6,-10,3,-16,5.6c-26.5,11.8,-50.8,24.4,-77.4,36.7c-11.1,5,-24.1,9,-30.5,15.4c-8.5,8.5,-11.4,26.8,-6.6,38.1c3.8,8.8,17.2,18.6,27.2,18.3c6.6,-.2,16.1,-6.6,22.6,-9.4c3.1,-1.3,7.2,-2.8,11.2,-4.7c3.6,-1.7,7.4,-4.8,11.8,-4.2c10,1.2,12.6,19.6,15.9,31.9c2.1,7.5,2.6,12,4.7,19.2c1.6,5.3,6.8,13.8,4.7,18.8c-2.6,6.4,-7.9,3.3,-14.5,4.2c-12.1,1.8,-26.9,11.9,-33.4,19.3c-8,9.1,-15.1,25.2,-8.9,39.4c6.9,15.9,27.2,25.7,48.8,27.2c33.7,2.4,66.8,-13.5,77,-35.6c1.5,-3.2,2.4,-13.7,8,-14.6c5.1,-.8,10.7,4.4,14.1,5.6c14.3,5.5,29.6,7.2,46.9,2.9c20.7,-5.1,36.2,-14.6,48.8,-27.3c4.3,-4.2,9.2,-11.3,13.7,-12.2c4,-.7,5.7,.9,9.3,.5c5.5,-.7,12.3,-5,18.8,-8c43.2,-19.7,88.4,-39.2,129.1,-59.6c12.8,-6.4,26.2,-11.1,37.6,-16.4c30.4,-14.4,60.7,-28.4,91.5,-43.2c6.3,-3,13.3,-5.4,18.3,-8.9c6,-4.2,11.8,-13.6,15,-19.7c6.4,-12.2,10.7,-27.6,9,-42.3C794,1285.5,755,1252.1,701.6,1260.4c-5,.8,-10.6,.8,-15.4,1.9c-6.5,1.4,-14.3,6.1,-22.1,9.4c-15.1,6.4,-29.3,13.1,-44.1,19.7c-29.6,13.3,-58.6,25.5,-87.8,39.9c-6.6,3.3,-18.4,9.6,-23.5,8.5c-2.9,-.7,-6.7,-5.7,-7,-9.4c-.4,-4.4,2.8,-11.4,4.2,-16.9c6.2,-24,5.8,-70.5,-25.4,-65.7c-14.7,2.2,-18.4,13.2,-24.4,23.9Zm534.2,380.7c10.8,-1.9,20.9,5.9,22.1,16c.7,5.9,-1.4,14.5,-2.8,20.2c-3.8,15.3,-14.5,36.1,-23.5,44.6c-4.9,4.6,-14.9,11.7,-26.3,8.4c-6.2,-1.8,-15.5,-10.6,-16.4,-21.1c-.6,-7.2,3.1,-15,5.2,-19.7c7.4,-17.3,16.7,-33.8,31,-43.7c2.8,-2,6,-3.8,10.7,-4.7ZM486.6,1786.7c7.3,-1.8,24.4,13.3,29.2,17.8c9.4,8.8,15.4,16.6,21.1,25.4c11.8,18.2,21.3,46.7,23,69.9c2.3,30.9,-4.2,61.9,-16.4,83.1c-7.6,13.2,-15.5,22.8,-28.2,31c-4.7,3,-9,6.7,-13.2,8c-8.3,2.6,-22.2,3.6,-31.9,2.8C448.9,2022.8,427,2006,415.8,1993.2c-14.5,-16.4,-27.6,-42.5,-33.4,-68.5c-6.8,-30.9,-2.9,-72.4,8.5,-95.3c1.8,-3.6,4.7,-9.9,9.4,-10.8c5.1,-1,12.7,5.4,17.8,7c26.1,8.5,48.7,-7.6,58.7,-23.9c2,-3.3,4.4,-13.7,9.8,-15Zm503.3,618.7c19.6,-2.6,35.9,13.7,43.2,27.7c2.2,4.3,4.1,10,5.6,15.5c1.6,5.5,3.6,11.7,4.2,16.4c2.4,19.2,-2.3,39.9,-10.3,52.6c-4.7,7.4,-7.8,10.1,-16,15.5c-7.5,4.9,-16.2,11.3,-30.5,8.4c-4.9,-1,-10.6,-4.9,-15.5,-8c-22.9,-14.2,-31.2,-58.2,-21.6,-90.6c1.3,-4.1,5.7,-10.3,9,-15c7.2,-10.4,16.6,-20.5,31.9,-22.5ZM753.8,2547.2c10.1,-1.4,17.9,15.4,21.6,23c4.2,8.7,8.1,23.6,8.9,34.7c1.1,15.6,-3,32.5,-9.9,41.8c-4.8,6.5,-9.7,15.1,-17.8,18.7c-8.1,3.6,-24.1,2.8,-31.5,-.4c-5.2,-2.3,-18.4,-14.5,-22,-19.3C692.6,2632,686,2610.4,689,2583.8c.7,-6.5,2.4,-12.7,8.4,-13.6c5.9,-1,9.9,4.3,16.5,5.1c13.5,1.7,22.4,-5.7,27.7,-13.6c3.6,-5.4,3.8,-13.4,12.2,-14.5ZM1434.5,1163.5c1.2,-1.4,1.8,-3.3,1.6,-5.4c-.5,-4,-4.1,-6.8,-8.1,-6.4c0,0,-197.6,22,-197.6,22c-65.2,7.4,-119.2,12.9,-184.6,18.5c-109.3,8.6,-221.1,10.2,-330.8,10.9c-69.6,.3,-139.2,-2,-208.7,-6.9c-152,-10.9,-303.4,-29.3,-453.7,-55c-3.9,-.7,-7.7,2,-8.4,6c-.1,.7,-.1,1.4,0,2.1c-1.2,6.2,3.1,17.4,4,24.8c3.9,30.2,9.4,58.8,15,86.8c8.1,40.3,13,77.3,20.7,115c3.8,19.1,6.5,38.6,9.8,57.8c16.7,96.5,33.9,193.2,50.3,289.1c4.9,28.9,9.6,58.4,15,86.4c1.9,9.8,2.8,19.8,4.7,29.6c3.7,19.1,6.8,38.5,9.8,57.7c15.6,97.3,34.1,193.5,49.3,290.1c9.2,57.8,20.9,116.2,29.6,173.7c3,19.6,6.9,38.8,9.9,58.2c9,58.8,19.4,116.9,28.1,175.1c2.9,19.4,6.9,38.8,9.9,58.2c12.2,78.9,24.4,154.6,38,233.3c3.3,19.2,5.6,37.3,9.4,58.2c1.5,8.2,3.6,18.5,5.2,28.7l5.6,34.5l49.3,-.7c32.4,0,63.9,0,95.3,-.5c15.5,-.2,30.8,.5,46.5,.5c95.3,0,190.6,-1,282.1,-.5c47.5,.3,95.3,-1.1,141.3,.5c15.7,.5,31.7,-.4,46.9,0c23.4,.6,47.1,0,71.4,0l27.2,-1.1l7,-35.5c5.9,-28.5,10.3,-57.9,15.1,-86.4c19.5,-116,39.5,-230.7,58.6,-346.5c38.2,-231,77.6,-462.9,117.9,-692.4c3.3,-19.1,6.4,-38.4,9.8,-57.7c3.5,-19.3,5.8,-39,9.4,-58.2c7.2,-38.2,14.5,-76.3,20.7,-114.5c3.1,-19.1,6.7,-38.2,9.8,-57.3c9.6,-58.6,19.1,-116,29.6,-173.2c10.6,-57.7,20.8,-115.3,30.1,-172.8c2.3,-14.4,5.6,-28.9,7.5,-43.2c.1,-1.1,.3,-2.3,.5,-3.5Z" class="g2"/>

</g>
</svg>
